<?xml version="1.0" encoding="utf-8"?>
<!-- Generator: Adobe Illustrator 27.0.0, SVG Export Plug-In . SVG Version: 6.00 Build 0)  -->
<svg version="1.1" id="Layer_1" shape-rendering="geometricPrecision"
	 xmlns="http://www.w3.org/2000/svg" xmlns:xlink="http://www.w3.org/1999/xlink" x="0px" y="0px" viewBox="0 0 180.546 56.686"
	 style="enable-background:new 0 0 180.546 56.686;" xml:space="preserve">
<style type="text/css">
	.st0{fill:#010101;}
	.st1{fill:#FAFAFA;}
	.st2{fill:#5BD4D0;}
</style>
<g>
	<path class="st0" d="M26.627,5.056h-0.1c-11.872,0-21.55,9.6-21.55,21.5c0,11.8,9.677,21.5,21.55,21.5
		c11.872,0,21.45-9.6,21.45-21.4v-0.1C47.978,14.656,38.4,5.056,26.627,5.056z"/>
	<path class="st0" d="M26.478,0.656c-14.302,0.006-25.894,11.598-25.9,25.9c0.006,14.302,11.598,25.894,25.9,25.9
		c14.302-0.006,25.894-11.598,25.9-25.9C52.278,12.256,40.678,0.656,26.478,0.656z M26.478,49.956c-12.9,0-23.4-10.5-23.4-23.4v-0.2
		c0.1-12.9,10.5-23.3,23.4-23.2c12.9,0,23.3,10.4,23.4,23.4C49.878,39.456,39.378,49.956,26.478,49.956z"/>
	<path class="st1" d="M26.478,3.156c-12.9-0.1-23.3,10.3-23.4,23.2v0.2c0,12.9,10.5,23.4,23.4,23.4c12.9,0,23.4-10.5,23.4-23.4
		C49.778,13.556,39.378,3.156,26.478,3.156z M47.978,26.656c0,11.8-9.578,21.4-21.45,21.4s-21.55-9.7-21.55-21.5
		c0-11.9,9.677-21.5,21.55-21.5h0.1c11.773,0,21.35,9.6,21.35,21.5V26.656z M28.203,25.556l-2.4-2.4l-6.4,6.5c-2-2-2-5.3,0-7.4
		l2.8-2.8l-2.3-2.3l9.3-0.9L28.203,25.556z M24.703,27.356l2.4,2.4l6.5-6.5c2,2,2,5.3,0,7.4l-2.8,2.8l2.3,2.3l-9.3,0.9
		L24.703,27.356z"/>
	<path class="st2" d="M11.903,17.856l-2-1.2c0.8-1.4,1.8-2.6,3-3.8l1.7,1.7C13.503,15.556,12.703,16.656,11.903,17.856z
		 M20.003,10.956v-0.1l-0.9-2.2c-1.504,0.602-2.917,1.41-4.2,2.4l1.5,1.9C17.503,12.156,18.703,11.456,20.003,10.956z
		 M10.803,20.056l-2.2-0.9c-0.6,1.5-1,3-1.3,4.6l2.4,0.3C9.903,22.656,10.303,21.356,10.803,20.056z M33.903,8.656
		c-1.475-0.598-3.021-1.001-4.6-1.2l-0.3,2.4c1.3,0.2,2.7,0.6,4,1.1L33.903,8.656z M43.303,26.556h2.4c0-1.6-0.2-3.2-0.6-4.7
		l-2.3,0.6C43.103,23.756,43.303,25.156,43.303,26.556z M9.603,26.456h-2.4c0,1.6,0.2,3.2,0.6,4.8l2.3-0.6
		C9.803,29.256,9.603,27.856,9.603,26.456z M42.103,20.056l2.2-1c-0.602-1.504-1.41-2.917-2.4-4.2l-1.9,1.5
		C40.803,17.556,41.603,18.756,42.103,20.056z M40.203,12.856c-1.2-1.1-2.5-2.1-3.8-2.9l-1.3,2.1c1.2,0.7,2.3,1.6,3.3,2.6
		L40.203,12.856z M42.003,33.056l2.3,0.9c0.598-1.475,1.001-3.021,1.2-4.6l-2.4-0.3C42.903,30.456,42.503,31.756,42.003,33.056z
		 M32.903,42.056l0.9,2.3c1.5-0.6,2.9-1.4,4.2-2.5l-1.5-1.9C35.403,40.856,34.203,41.556,32.903,42.056z M26.503,43.356v2.4
		c1.5,0,3.1-0.1,4.7-0.6l-0.6-2.3C29.303,43.156,27.903,43.356,26.503,43.356z M38.303,38.456l1.7,1.7c1.2-1.1,2.2-2.4,3-3.7
		l-2.1-1.3C40.103,36.356,39.303,37.456,38.303,38.456z M10.803,32.956l-2.2,0.9c0.602,1.504,1.41,2.917,2.4,4.2l1.9-1.5
		C12.103,35.456,11.303,34.256,10.803,32.956z M22.303,10.156c1.4-0.4,2.7-0.5,4.1-0.5v-2.4c-1.6,0-3.2,0.2-4.7,0.6L22.303,10.156z
		 M12.803,40.056c1.1,1.2,2.4,2.2,3.8,3l1.2-2.1c-1.2-0.8-2.3-1.6-3.3-2.6L12.803,40.056z M19.103,44.356c1.4,0.6,3,1,4.6,1.3
		l0.3-2.4c-1.4-0.2-2.7-0.6-4-1.1L19.103,44.356z"/>
	<path d="M82.646,8.181c0.27,0.865,0.404,1.906,0.404,3.123v9.782h-4.964v-9.297c0-0.438-0.074-0.78-0.223-1.027
		s-0.348-0.428-0.6-0.542c-0.251-0.114-0.553-0.171-0.906-0.171c-0.428,0-0.864,0.095-1.311,0.285
		c-0.446,0.19-0.818,0.418-1.115,0.685c0,0.133,0.004,0.276,0.014,0.428c0.009,0.152,0.014,0.295,0.014,0.428v9.212h-4.964v-9.297
		c0-0.438-0.075-0.78-0.223-1.027c-0.149-0.247-0.344-0.428-0.585-0.542c-0.242-0.114-0.54-0.171-0.893-0.171
		c-0.297,0-0.595,0.038-0.893,0.114c-0.297,0.076-0.571,0.186-0.822,0.328s-0.488,0.319-0.711,0.528v10.067h-4.964V5.742h4.155
		l0.809,1.512c0.632-0.494,1.301-0.913,2.008-1.255s1.627-0.514,2.761-0.514c0.93,0,1.701,0.195,2.315,0.585
		c0.613,0.39,1.078,0.898,1.394,1.526c0.409-0.323,0.874-0.646,1.395-0.97c0.52-0.323,1.087-0.594,1.701-0.813
		c0.613-0.218,1.217-0.328,1.812-0.328c1.264,0,2.245,0.233,2.942,0.699C81.893,6.65,82.377,7.316,82.646,8.181z M97.704,7.596
		c0.492,0.76,0.738,1.835,0.738,3.223v10.267h-3.932l-0.781-1.568c-0.166,0.171-0.389,0.352-0.668,0.542
		c-0.279,0.19-0.623,0.381-1.032,0.57c-0.409,0.19-0.864,0.342-1.366,0.457s-1.06,0.171-1.673,0.171
		c-1.134,0-2.06-0.347-2.775-1.041c-0.716-0.694-1.074-1.649-1.074-2.867v-1.483c0-1.16,0.404-2.115,1.213-2.866
		c0.809-0.751,2.086-1.126,3.834-1.126h3.291v-0.685c0-0.418-0.07-0.751-0.209-0.998c-0.141-0.247-0.418-0.428-0.838-0.542
		c-0.418-0.114-1.063-0.171-1.937-0.171h-4.434V6.569c0.762-0.285,1.641-0.528,2.635-0.728c0.994-0.199,2.208-0.299,3.64-0.299
		c1.264,0,2.352,0.152,3.262,0.457S97.212,6.836,97.704,7.596z M93.48,14.241l-1.617,0.171c-0.596,0.076-1.037,0.233-1.325,0.471
		c-0.288,0.238-0.432,0.584-0.432,1.041v0.599c0,0.304,0.06,0.551,0.181,0.741c0.121,0.19,0.293,0.324,0.516,0.399
		c0.223,0.076,0.483,0.114,0.78,0.114c0.111,0,0.246-0.015,0.404-0.043s0.316-0.062,0.475-0.1s0.307-0.081,0.445-0.128
		c0.141-0.047,0.26-0.095,0.363-0.143c0.102-0.047,0.172-0.071,0.209-0.071V14.241z M109.96,5.514c-0.874,0-1.622,0.242-2.244,0.727
		c-0.623,0.485-1.177,1.051-1.659,1.697l-1.088-2.196h-3.876v15.344h4.964v-8.984c0.26-0.323,0.548-0.58,0.864-0.77
		c0.315-0.19,0.669-0.337,1.06-0.442s0.827-0.157,1.311-0.157c0.26,0,0.548,0.014,0.864,0.042c0.316,0.029,0.632,0.062,0.948,0.1
		V5.657c-0.186-0.057-0.386-0.095-0.6-0.114C110.29,5.524,110.109,5.514,109.96,5.514z M120.613,11.417h-2.538
		c-0.316,0-0.576-0.023-0.78-0.071c-0.205-0.047-0.354-0.128-0.446-0.242c-0.094-0.114-0.14-0.285-0.14-0.513v-0.399
		c0-0.304,0.093-0.518,0.279-0.642c0.186-0.124,0.464-0.186,0.836-0.186h6.47V6.427c-0.334-0.152-0.809-0.29-1.422-0.414
		c-0.613-0.124-1.269-0.223-1.966-0.299s-1.381-0.114-2.05-0.114c-1.655,0-2.942,0.181-3.862,0.542s-1.566,0.884-1.938,1.568
		s-0.558,1.512-0.558,2.481v0.941c0,1.065,0.209,1.911,0.628,2.539c0.418,0.627,0.971,1.079,1.659,1.354
		c0.688,0.276,1.459,0.414,2.314,0.414h2.426c0.521,0,0.864,0.071,1.032,0.214c0.167,0.143,0.251,0.347,0.251,0.613v0.399
		c0,0.19-0.033,0.347-0.098,0.47c-0.065,0.124-0.182,0.209-0.349,0.257c-0.167,0.048-0.4,0.071-0.697,0.071h-6.86v2.966
		c0.335,0.152,0.729,0.281,1.186,0.385c0.455,0.105,0.943,0.186,1.464,0.243c0.521,0.057,1.05,0.104,1.59,0.143
		c0.539,0.038,1.068,0.057,1.589,0.057c1.413,0,2.589-0.133,3.528-0.399c0.938-0.266,1.649-0.708,2.133-1.326
		c0.483-0.618,0.726-1.44,0.726-2.467v-1.511c0-1.274-0.34-2.282-1.019-3.023C123.322,11.788,122.193,11.417,120.613,11.417z
		 M139.199,7.596c0.492,0.76,0.738,1.835,0.738,3.223v10.267h-3.932l-0.781-1.568c-0.167,0.171-0.39,0.352-0.669,0.542
		c-0.279,0.19-0.623,0.381-1.032,0.57c-0.409,0.19-0.864,0.342-1.366,0.457s-1.06,0.171-1.673,0.171
		c-1.135,0-2.06-0.347-2.774-1.041c-0.717-0.694-1.074-1.649-1.074-2.867v-1.483c0-1.16,0.404-2.115,1.213-2.866
		c0.809-0.751,2.087-1.126,3.835-1.126h3.29v-0.685c0-0.418-0.069-0.751-0.209-0.998s-0.418-0.428-0.837-0.542
		c-0.418-0.114-1.064-0.171-1.938-0.171h-4.435V6.569c0.763-0.285,1.641-0.528,2.636-0.728c0.994-0.199,2.207-0.299,3.64-0.299
		c1.264,0,2.352,0.152,3.263,0.457C138.004,6.303,138.706,6.836,139.199,7.596z M134.974,14.241l-1.617,0.171
		c-0.595,0.076-1.036,0.233-1.324,0.471c-0.289,0.238-0.433,0.584-0.433,1.041v0.599c0,0.304,0.061,0.551,0.182,0.741
		c0.12,0.19,0.293,0.324,0.516,0.399c0.223,0.076,0.483,0.114,0.781,0.114c0.111,0,0.246-0.015,0.404-0.043
		c0.157-0.028,0.315-0.062,0.474-0.1s0.307-0.081,0.446-0.128s0.26-0.095,0.362-0.143s0.172-0.071,0.209-0.071V14.241z
		 M156.265,8.252c-0.251-0.855-0.711-1.53-1.38-2.025c-0.669-0.494-1.646-0.742-2.929-0.742c-0.817,0-1.631,0.181-2.439,0.542
		c-0.809,0.361-1.464,0.77-1.966,1.227l-0.809-1.512h-4.155v15.344h4.964V11.018c0.223-0.209,0.46-0.385,0.711-0.528
		s0.524-0.252,0.822-0.328c0.298-0.076,0.595-0.114,0.893-0.114c0.353,0,0.65,0.057,0.893,0.171
		c0.241,0.114,0.437,0.295,0.585,0.542c0.149,0.247,0.224,0.589,0.224,1.027v9.297h4.964v-9.982
		C156.642,10.058,156.516,9.107,156.265,8.252z M96.515,45.391h3.896v2.83c-0.463,0.169-1.016,0.33-1.656,0.48
		c-0.639,0.151-1.309,0.265-2.004,0.34s-1.369,0.113-2.018,0.113c-0.928,0-1.787-0.128-2.574-0.382
		c-0.79-0.255-1.472-0.67-2.047-1.245c-0.576-0.575-1.016-1.358-1.322-2.349c-0.306-0.991-0.459-2.231-0.459-3.722
		c0-1.547,0.144-2.834,0.432-3.862c0.288-1.028,0.705-1.84,1.252-2.434c0.547-0.595,1.234-1.019,2.061-1.273
		c0.824-0.255,1.758-0.382,2.797-0.382c0.984,0,1.879,0.062,2.688,0.184c0.807,0.123,1.691,0.335,2.658,0.637v2.887h-3.73
		c-0.836,0-1.484,0.113-1.949,0.339c-0.463,0.227-0.789,0.642-0.975,1.245c-0.186,0.604-0.277,1.472-0.277,2.604
		s0.092,1.981,0.277,2.547c0.186,0.566,0.512,0.948,0.975,1.146C95.003,45.292,95.661,45.391,96.515,45.391z M83.126,33.761
		l-2.451,4.224l-2.865-4.224h-4.983l4.988,7.353l-4.988,7.871h5.011l2.463-4.207l2.854,4.207h4.982l-4.972-7.329l4.972-7.894H83.126
		z M67.286,43.127h-3.062c0.056,0.547,0.171,0.99,0.348,1.33c0.176,0.339,0.501,0.58,0.974,0.722s1.173,0.212,2.102,0.212h4.176
		v2.943c-0.668,0.188-1.448,0.367-2.338,0.537s-1.958,0.255-3.201,0.255c-1.689,0-3.044-0.217-4.064-0.651
		c-1.021-0.434-1.758-1.217-2.213-2.349c-0.455-1.132-0.682-2.706-0.682-4.726c0-2.075,0.209-3.683,0.626-4.824
		s1.118-1.938,2.102-2.392c0.983-0.452,2.329-0.679,4.037-0.679c1.559,0,2.792,0.151,3.702,0.452
		c0.909,0.303,1.563,0.84,1.962,1.613c0.399,0.773,0.599,1.868,0.599,3.282c0,1.075-0.209,1.925-0.626,2.547
		c-0.417,0.623-1.007,1.066-1.768,1.33C69.197,42.995,68.307,43.127,67.286,43.127z M66.757,40.156c0.427,0,0.742-0.094,0.946-0.282
		s0.306-0.52,0.306-0.991c0-0.434-0.065-0.778-0.195-1.032c-0.13-0.255-0.339-0.443-0.626-0.566c-0.288-0.122-0.654-0.184-1.1-0.184
		s-0.812,0.09-1.1,0.269c-0.288,0.18-0.497,0.491-0.626,0.934c-0.13,0.443-0.195,1.062-0.195,1.854H66.757z M175.264,45.391h4.176
		v2.943c-0.668,0.188-1.447,0.367-2.339,0.537c-0.891,0.17-1.958,0.255-3.201,0.255c-1.688,0-3.043-0.217-4.063-0.651
		c-1.021-0.434-1.759-1.217-2.213-2.349c-0.455-1.132-0.683-2.706-0.683-4.726c0-2.075,0.209-3.683,0.627-4.824
		c0.417-1.142,1.117-1.938,2.102-2.392c0.983-0.452,2.328-0.679,4.036-0.679c1.559,0,2.793,0.151,3.702,0.452
		c0.909,0.303,1.563,0.84,1.963,1.613c0.398,0.773,0.598,1.868,0.598,3.282c0,1.075-0.208,1.925-0.626,2.547
		c-0.418,0.623-1.007,1.066-1.768,1.33c-0.761,0.265-1.652,0.396-2.672,0.396h-3.062c0.056,0.547,0.171,0.99,0.348,1.33
		c0.177,0.339,0.501,0.58,0.975,0.722S174.336,45.391,175.264,45.391z M171.784,40.156h2.589c0.427,0,0.742-0.094,0.946-0.282
		s0.307-0.52,0.307-0.991c0-0.434-0.065-0.778-0.195-1.032c-0.13-0.255-0.339-0.443-0.626-0.566c-0.288-0.122-0.654-0.184-1.1-0.184
		s-0.812,0.09-1.1,0.269c-0.288,0.18-0.497,0.491-0.626,0.934C171.849,38.745,171.784,39.364,171.784,40.156z M146.676,34.242
		c-0.668-0.49-1.643-0.735-2.923-0.735c-0.817,0-1.629,0.18-2.436,0.537c-0.808,0.359-1.462,0.765-1.963,1.217l-0.808-1.499h-4.147
		v15.224h4.955v-9.989c0.223-0.207,0.459-0.382,0.71-0.523s0.524-0.25,0.821-0.325s0.594-0.113,0.891-0.113
		c0.353,0,0.649,0.057,0.891,0.17s0.436,0.293,0.585,0.537c0.148,0.246,0.223,0.585,0.223,1.02v9.225h4.955V39.08
		c0-1.037-0.126-1.98-0.376-2.83C147.803,35.402,147.344,34.733,146.676,34.242z M114.525,34.185
		c-0.668-0.452-1.587-0.679-2.756-0.679c-0.835,0-1.67,0.184-2.506,0.552c-0.835,0.367-1.484,0.769-1.948,1.202v-7.838h-4.955
		v21.563h4.955v-9.989c0.204-0.188,0.436-0.354,0.696-0.495c0.26-0.142,0.538-0.255,0.835-0.34s0.594-0.127,0.891-0.127
		c0.315,0,0.599,0.052,0.849,0.155c0.251,0.104,0.455,0.279,0.613,0.523c0.157,0.246,0.236,0.576,0.236,0.991v9.281h4.955v-9.961
		c0-1.112-0.145-2.084-0.432-2.914C115.671,35.28,115.193,34.638,114.525,34.185z M157.393,33.761h8.156v2.744l-1.837,0.481
		c0.148,0.188,0.278,0.41,0.39,0.665s0.199,0.562,0.265,0.92c0.064,0.358,0.098,0.782,0.098,1.273c0,0.924-0.187,1.735-0.558,2.434
		c-0.371,0.697-0.951,1.24-1.739,1.627c-0.789,0.387-1.842,0.58-3.159,0.58h-2.756c-0.372,0-0.683,0.062-0.933,0.184
		c-0.251,0.123-0.376,0.335-0.376,0.637c0,0.283,0.115,0.467,0.348,0.552s0.506,0.127,0.821,0.127h3.786
		c1.15,0,2.134,0.151,2.95,0.453s1.452,0.802,1.907,1.5c0.454,0.698,0.682,1.632,0.682,2.802v0.311c0,1.547-0.469,2.764-1.405,3.65
		c-0.938,0.887-2.399,1.33-4.385,1.33h-4.621c-0.928,0-1.763-0.142-2.505-0.424c-0.742-0.283-1.327-0.693-1.754-1.231
		c-0.427-0.537-0.64-1.184-0.64-1.938v-0.368c0-0.792,0.227-1.471,0.682-2.037c0.401-0.499,0.925-0.882,1.535-1.183
		c-0.077-0.052-0.171-0.091-0.241-0.147c-0.872-0.697-1.308-1.537-1.308-2.519c0-0.773,0.213-1.434,0.64-1.98
		s1.021-0.915,1.782-1.104c-0.539-0.34-0.975-0.736-1.309-1.188c-0.334-0.453-0.575-0.943-0.724-1.472
		c-0.149-0.528-0.223-1.085-0.223-1.67c0-1.112,0.223-2.037,0.668-2.772c0.445-0.736,1.142-1.292,2.088-1.67
		C154.665,33.95,155.89,33.761,157.393,33.761z M156.446,49.748c-0.353,0-0.649,0.052-0.891,0.156
		c-0.241,0.104-0.427,0.25-0.557,0.438s-0.195,0.425-0.195,0.707v0.198c0,0.377,0.135,0.688,0.404,0.934
		c0.269,0.245,0.682,0.368,1.238,0.368h2.589c0.501,0,0.909-0.104,1.225-0.312c0.315-0.207,0.474-0.509,0.474-0.905v-0.396
		c0-0.264-0.065-0.48-0.195-0.65s-0.315-0.302-0.557-0.396s-0.538-0.142-0.891-0.142H156.446z M158.507,37.495h-1.56
		c-0.538,0-0.928,0.118-1.169,0.354c-0.241,0.235-0.362,0.655-0.362,1.259c0,0.566,0.116,0.981,0.349,1.245
		c0.231,0.265,0.616,0.396,1.155,0.396h1.531c0.407,0,0.728-0.062,0.96-0.185c0.231-0.122,0.39-0.306,0.474-0.552
		c0.083-0.244,0.125-0.547,0.125-0.905c0-0.377-0.052-0.688-0.153-0.934c-0.103-0.245-0.265-0.42-0.487-0.523
		S158.858,37.495,158.507,37.495z M131.018,35.6c0.491,0.755,0.737,1.82,0.737,3.197v10.188h-3.925l-0.779-1.557
		c-0.167,0.17-0.39,0.35-0.668,0.538s-0.622,0.377-1.03,0.565c-0.408,0.189-0.862,0.34-1.363,0.453s-1.059,0.17-1.671,0.17
		c-1.132,0-2.056-0.344-2.77-1.033c-0.715-0.688-1.071-1.636-1.071-2.844v-1.472c0-1.15,0.403-2.099,1.211-2.844
		c0.807-0.745,2.083-1.117,3.827-1.117h3.285v-0.68c0-0.415-0.07-0.745-0.209-0.99c-0.14-0.245-0.418-0.425-0.835-0.538
		c-0.418-0.113-1.062-0.17-1.935-0.17h-4.427v-2.886c0.761-0.283,1.638-0.523,2.631-0.722c0.992-0.198,2.203-0.297,3.633-0.297
		c1.262,0,2.348,0.151,3.257,0.452C129.825,34.318,130.525,34.846,131.018,35.6z M126.801,42.194l-1.615,0.169
		c-0.594,0.076-1.034,0.231-1.322,0.468c-0.288,0.235-0.431,0.58-0.431,1.032v0.595c0,0.302,0.06,0.547,0.181,0.735
		c0.12,0.188,0.292,0.321,0.515,0.396s0.482,0.113,0.779,0.113c0.111,0,0.246-0.015,0.404-0.043
		c0.157-0.028,0.314-0.061,0.473-0.099c0.157-0.038,0.307-0.08,0.445-0.128c0.14-0.047,0.26-0.094,0.362-0.141
		c0.102-0.047,0.171-0.071,0.209-0.071V42.194z"/>
</g>
</svg>
