<svg width="1024" height="1024" viewBox="0 0 1024 1024" fill="none" xmlns="http://www.w3.org/2000/svg">
<rect width="1024" height="1024" rx="218.5" fill="#D0EEDB"/>
<path d="M512 883.897C717.764 883.897 883.754 717.908 883.754 513.723V512C883.754 306.236 717.764 140.103 513.723 140.103H512C306.236 140.103 138.523 306.236 138.523 512C138.523 716.041 306.236 883.897 512 883.897ZM512 64.1436C264.738 64.2871 64.287 264.595 64.1434 512C64.287 759.405 264.738 959.856 512 959.856C759.261 959.713 959.713 759.405 959.856 512C958.133 264.738 757.538 64.1436 512 64.1436ZM512 916.78C288.861 916.78 107.364 735.138 107.364 512V508.554C109.087 285.415 288.861 105.641 512 107.364C734.995 107.364 914.913 287.138 916.636 512C916.636 735.138 734.995 916.78 512 916.78Z" fill="#272E37"/>
<path d="M512 107.364C289.005 105.641 109.087 285.559 107.364 508.554V512C107.364 735.138 288.862 916.636 512 916.636C735.138 916.636 916.636 735.282 916.636 512C914.913 287.282 734.995 107.364 512 107.364ZM512 883.897C306.236 883.897 138.523 716.184 138.523 512C138.523 306.236 306.236 138.379 512 138.379C717.764 138.379 883.754 304.369 883.754 508.554V510.277C883.754 716.184 716.041 883.897 512 883.897ZM541.436 494.769L499.939 453.272L389.231 565.702C354.626 531.097 354.626 474.092 389.231 437.764L437.621 389.374L397.846 349.6L558.667 334.092L541.436 494.769ZM480.841 525.928L522.339 567.425L634.769 454.995C669.374 489.6 669.374 546.605 634.769 582.933L586.379 631.323L626.154 671.097L465.333 686.605L480.841 525.928Z" fill="#D0EEDB"/>
<path d="M260.431 362.38L225.826 341.559C239.61 317.293 256.985 296.616 277.662 275.795L307.097 305.231C288 322.605 274.215 341.559 260.431 362.38ZM400.431 243.057V241.334L384.923 203.282C358.933 213.621 334.523 227.693 312.267 244.78L338.256 277.662C357.21 263.877 378.031 251.672 400.431 243.057ZM241.333 400.431L203.282 384.923C192.944 410.913 186.051 436.759 180.738 464.472L222.236 469.641C225.826 445.375 232.718 422.831 241.333 400.431ZM640.8 203.282C615.241 192.944 588.533 186.051 561.251 182.605L556.082 224.103C578.626 227.549 602.749 234.441 625.292 243.057L640.8 203.282ZM803.344 512.862H844.841C844.841 485.149 841.395 457.58 834.503 431.59L794.728 441.928C799.897 464.328 803.344 488.595 803.344 512.862ZM220.656 510.995H179.159C179.159 538.708 182.605 566.277 189.497 593.99L229.272 583.652C224.103 559.528 220.656 535.405 220.656 510.995ZM782.667 400.431L820.718 383.2C810.379 357.21 796.308 332.8 779.221 310.544L746.338 336.534C760.123 357.21 773.908 377.887 782.667 400.431ZM749.785 275.939C728.964 256.985 706.564 239.61 684.02 225.826L661.477 262.154C682.154 274.216 701.251 289.867 718.482 307.098L749.785 275.939ZM780.944 625.293L820.718 640.8C831.056 615.241 838.092 588.534 841.538 561.251L800.041 556.082C796.451 580.349 789.559 602.893 780.944 625.293ZM623.569 780.944L639.077 820.718C665.067 810.38 689.19 796.452 711.733 777.498L685.744 744.616C666.79 760.123 645.969 772.185 623.569 780.944ZM512.862 803.344V844.841C538.851 844.841 566.42 843.118 594.133 834.503L583.795 794.728C561.251 799.898 537.128 803.344 512.862 803.344ZM716.903 718.626L746.338 748.062C767.159 729.108 784.39 706.564 798.174 684.164L761.846 661.621C748.062 682.298 734.133 701.395 716.903 718.626ZM241.333 623.569L203.282 639.077C213.62 665.067 227.692 689.477 244.779 711.734L277.662 685.744C263.877 666.79 250.092 646.113 241.333 623.569ZM440.205 229.272C464.472 222.38 486.872 220.657 511.138 220.657V179.159C483.426 179.159 455.856 182.605 429.867 189.498L440.205 229.272ZM275.938 746.339C294.892 767.016 317.436 784.39 341.703 798.175L362.523 761.846C341.703 748.062 322.749 734.134 305.518 716.903L275.938 746.339ZM384.923 820.718C409.19 831.057 436.759 837.949 464.472 843.262L469.641 801.764C445.374 798.318 422.974 791.426 400.431 782.81L384.923 820.718Z" fill="#D0EEDB"/>
</svg>
