<svg xmlns="http://www.w3.org/2000/svg" viewBox="0 0 260 114"><path d="M38.3 0C17.1 0 0 17.1 0 38.3c0 21.1 17.1 38.3 38.3 38.3 21.1 0 38.3-17.1 38.3-38.3S59.4 0 38.3 0zm0 73C19.1 73 3.6 57.4 3.6 38.3c0-19.2 15.5-34.7 34.7-34.7C57.4 3.6 73 19.1 73 38.3 73 57.4 57.4 73 38.3 73zm0-2.8c17.6 0 31.9-14.3 31.9-31.9S55.9 6.4 38.3 6.4 6.4 20.7 6.4 38.3s14.3 31.9 31.9 31.9z" fill="#010101"/><path d="M38.3 3.6C19.1 3.6 3.6 19.1 3.6 38.3 3.6 57.4 19.1 73 38.3 73 57.4 73 73 57.4 73 38.3 73 19.1 57.4 3.6 38.3 3.6zm0 66.6c-17.6 0-31.9-14.3-31.9-31.9S20.7 6.4 38.3 6.4s31.9 14.3 31.9 31.9-14.3 31.9-31.9 31.9zM53 35.8v11.7h-5.7v-12c0-.5-.1-.9-.3-1.2s-.4-.5-.7-.7-.7-.2-1.1-.2c-.6 0-1.1.1-1.7.3-.5.2-1 .5-1.4.8v12.9h-5.7v-12c0-.5-.1-.9-.3-1.2s-.4-.5-.7-.7c-.3-.1-.7-.2-1.1-.2s-.8 0-1.1.1c-.4.1-.7.2-1 .4l-.9.6v12.9h-5.7v-18h4.7l1 1.8c.7-.6 1.5-1 2.4-1.4s2-.6 3.3-.6c1.1 0 2 .2 2.8.7.7.5 1.3 1.1 1.7 1.8.5-.4 1-.7 1.7-1.1.6-.4 1.3-.7 2.1-1 .7-.3 1.5-.4 2.2-.4 1.5 0 2.6.3 3.5.8.8.5 1.4 1.3 1.7 2.3.1 1 .3 2.2.3 3.6h0 0 0zm70.3-24.6v14.4h-7V10.9c0-.6-.1-1.1-.3-1.5s-.5-.7-.9-.8c-.4-.2-.8-.3-1.4-.3-.7 0-1.4.1-2 .4s-1.2.6-1.7 1v15.9h-7V10.9c0-.6-.1-1.1-.3-1.5s-.5-.7-.9-.8c-.4-.2-.8-.3-1.3-.3s-.9.1-1.4.2c-.7.1-1.1.3-1.5.5s-.7.5-1.1.7v15.9h-7V3.3h5.8l1.2 2.2c.9-.7 1.9-1.3 2.9-1.8 1.1-.5 2.4-.8 4.1-.8 1.4 0 2.5.3 3.4.9s1.6 1.3 2 2.2c.6-.4 1.3-.9 2.1-1.4s1.6-.9 2.5-1.2 1.8-.5 2.7-.5c1.8 0 3.2.3 4.2 1s1.8 1.7 2.1 2.9c.6 1.2.8 2.7.8 4.4h0 0 0zm19.8-5.5c-.7-1.1-1.8-1.8-3.1-2.3-1.3-.4-2.9-.7-4.8-.7-2.1 0-3.9.2-5.3.4-1.5.3-3.3.6-4.4 1v4.1h10.2c.8 0 1.4.6 1.4 1.4v1.7h-5c-2.6 0-4.4.5-5.6 1.6s-1.8 2.5-1.8 4.2V20c0 1.7.5 3.1 1.6 4.1 1 1 2.4 2 4.1 2 .9 0 1.7-.1 2.5-.2.8-.2 1.5-.4 2.1-.7s1.1-.6 1.6-.8c.4-.3.8-.5 1-.8l1.1 2.3h5.6V10.3c-.1-2-.5-3.6-1.2-4.6h0 0 0zm-6 13.5c-.1 0-.2.1-.4.1-.1.1-.3.1-.6.2-.2.1-.5.1-.7.2s-.5.1-.8.2-.5.1-.7 0c-.4 0-.8-.1-1.2-.2-.3-.1-.6-.3-.8-.6s-.3-.7-.3-1.1h0c0-.7.2-1.2.7-1.6.3-.2.7-.4 1.1-.5.5-.1 1-.2 1.5-.2h2.1l.1 3.5h0 0 0zm65-13.5c-.7-1.1-1.8-1.8-3.1-2.3-1.3-.4-2.9-.7-4.8-.7-2.1 0-3.9.2-5.3.4-1.5.3-3.3.6-4.4 1v4.1h10.2c.8 0 1.4.6 1.4 1.4v1.7h-5c-2.6 0-4.4.5-5.6 1.6s-1.8 2.5-1.8 4.2V20c0 1.7.5 3.1 1.6 4.1 1 1 2.4 2 4.1 2 .9 0 1.7-.1 2.5-.2.8-.2 1.5-.4 2.1-.7s1.1-.6 1.6-.8c.4-.3.8-.5 1-.8l1.1 2.3h5.6V10.3c-.1-2-.5-3.6-1.2-4.6h0 0 0zm-6 13.5c-.1 0-.2.1-.4.1-.1.1-.3.1-.6.2-.2.1-.5.1-.7.2s-.5.1-.8.2-.5.1-.7 0c-.4 0-.8-.1-1.2-.2-.3-.1-.6-.3-.8-.6s-.3-.7-.3-1.1h0c0-.7.2-1.2.7-1.6.3-.2.7-.4 1.1-.5.5-.1 1-.2 1.5-.2h2.1l.1 3.5h0 0 0zm-4.3 29.7c-.7-1.1-1.7-1.8-3.1-2.3-1.5-.5-3.1-.7-4.7-.7-2.1 0-3.8.2-5.3.4-1.5.3-3.3.6-4.4 1v4h10.1c.8 0 1.4.6 1.4 1.4v1.7h-5c-2.5 0-4.4.5-5.6 1.6s-1.8 2.5-1.8 4.1v2.8c0 1.7.5 3.1 1.6 4.1 1 1 2.4 1.9 4.1 1.9.9 0 1.7-.1 2.4-.2.8-.2 1.4-.4 2.1-.6.6-.3 1.1-.5 1.6-.8.4-.3.8-.5 1-.8l1.1 2.2h5.6V53.5c0-2-.3-3.5-1.1-4.6h0 0 0zm-5.9 13.4c-.1 0-.2.1-.3.1-.1.1-.3.1-.6.2-.2.1-.5.1-.7.2s-.5.1-.8.2-.5.1-.7 0c-.4 0-.8 0-1.2-.2-.3-.1-.6-.3-.8-.6s-.3-.7-.3-1.1V61c0-.7.2-1.2.7-1.6.3-.2.6-.4 1.1-.5s1-.2 1.5-.2h2.1v3.6zm19.4-36.7V3.1h5.8l1.2 2.2c.7-.6 1.7-1.2 2.9-1.7s2.4-.8 3.6-.8c1.8 0 3.3.4 4.2 1.1s1.6 1.7 2 2.9.5 2.6.5 4v14.9h-7V11.1c0-.6-.1-1.1-.3-1.5s-.5-.7-.9-.8c-.4-.2-.8-.3-1.3-.3s-.9.1-1.4.2-.9.3-1.3.5-.7.5-1.1.7v15.7c0 0-6.9 0-6.9 0zM195 68.9V46.4h5.8l1.2 2.2c.7-.6 1.7-1.2 2.9-1.7s2.4-.8 3.6-.8c1.8 0 3.3.4 4.2 1.1 1 .7 1.6 1.7 2 2.9s.5 2.6.5 4V69h-7V54.4c0-.6-.1-1.1-.3-1.5s-.5-.7-.9-.8c-.4-.2-.8-.3-1.3-.3s-.9.1-1.4.2-.9.3-1.3.5-.7.5-1.1.7v15.7H195zm-96.1-5.3h-.8c-.8 0-1.4-.6-1.4-1.4-.1-.3 0-.5 0-.8v-.8h4.8c1.6 0 3-.2 4.1-.6 1.2-.4 2.1-1.1 2.7-2 .6-1 1-2.2 1-3.8 0-2.2-.3-3.8-.9-5s-1.6-2-3.1-2.5c-1.4-.5-3.3-.7-5.7-.7-2.6 0-4.7.3-6.2 1s-2.6 1.9-3.3 3.7c-.6 1.7-1 4.2-1 7.4s.4 5.5 1.1 7.2 1.9 2.9 3.4 3.6c.7.3 1.4.4 2.1.4l8.3-.2c1.6 0 3.2-.4 4.7-.7v-4.7h-6.8c-1.1-.1-2.2 0-3-.1zm-2.1-10.4c.2-.6.5-1.1 1-1.5.5-.3 1.1-.4 1.8-.4.8 0 1.4.1 1.8.3.5.2.8.5 1 .9s.3 1 .3 1.7-.2 1.3-.5 1.6-.8.4-1.6.4h-4.2c0-1.3.2-2.3.4-3h0 0 0zm152.8 10.4h-.8c-.8 0-1.4-.6-1.4-1.4-.1-.3 0-.5 0-.8v-.8h4.8c1.6 0 3-.2 4.1-.6 1.2-.4 2.1-1.1 2.7-2 .6-1 1-2.2 1-3.8 0-2.2-.3-3.8-.9-5s-1.6-2-3.1-2.5c-1.4-.5-3.3-.7-5.7-.7-2.6 0-4.7.3-6.2 1s-2.6 1.9-3.3 3.7c-.6 1.7-1 4.2-1 7.4s.4 5.5 1.1 7.2 1.9 2.9 3.4 3.6c.7.3 1.4.4 2.1.4l8.3-.2c1.6 0 3.2-.4 4.7-.7v-4.7h-6.8c-1.1-.1-2.2 0-3-.1h0 0 0zm-2.1-10.4c.2-.6.5-1.1 1-1.5.5-.3 1.1-.4 1.8-.4.8 0 1.4.1 1.8.3.5.2.8.5 1 .9s.3 1 .3 1.7-.2 1.3-.5 1.6-.8.4-1.6.4h-4.2c0-1.3.2-2.3.4-3h0zm-88.4 55h-.8c-.8 0-1.4-.6-1.4-1.4-.1-.3 0-.5 0-.8v-.8h4.8c1.6 0 3-.2 4.1-.6 1.2-.4 2.1-1.1 2.7-2 .6-1 1-2.2 1-3.8 0-2.2-.3-3.8-.9-5s-1.6-2-3.1-2.5c-1.4-.5-3.3-.7-5.7-.7-2.6 0-4.7.3-6.2 1s-2.6 1.9-3.3 3.7c-.6 1.7-1 4.2-1 7.4s.4 5.5 1.1 7.2 1.9 2.9 3.4 3.6c.7.3 1.4.4 2.1.4l8.3-.2c1.6 0 3.2-.4 4.7-.7v-4.7h-6.8c-1.1-.1-2.2-.1-3-.1h0 0 0zm-2.2-10.5c.2-.6.5-1.1 1-1.5.5-.3 1.1-.4 1.8-.4.8 0 1.4.1 1.8.3.5.2.8.5 1 .9s.3 1 .3 1.7-.2 1.3-.5 1.6-.8.4-1.6.4h-4.2c.1-1.3.2-2.3.4-3h0zm-24-51.1h-9l-3 5.6-3.3-5.6H109l7.4 11.1-7.4 11.1h8.7l3.2-5.6 3 5.6h8.6l-7.5-11 7.9-11.2h0 0zm17 16.8V68c-.7.3-1.9.8-2.9 1s-2 .4-3.1.5-2.1.2-3.1.2c-.8 0-1.6-.1-2.4-.2-.5-.1-1-.2-1.5-.4-1.2-.4-2.2-1-3.1-1.9s-1.5-2-2-3.5c0-.1-.1-.2-.1-.3-.4-1.4-.6-3.2-.6-5.3 0-2.3.2-4.2.7-5.8.4-1.5 1.1-2.8 1.9-3.6.9-.9 1.9-1.5 3.1-1.9.5-.2 1.1-.3 1.6-.4.8-.1 1.7-.2 2.6-.2 1.4 0 2.8.1 4 .3s3 .7 4.4 1.1V52h-8.5a2.65 2.65 0 0 0-2.6 2.6v6.3a2.65 2.65 0 0 0 2.6 2.6l9-.1h0 0 0zm1.5 5.5V36.1h7.1v12.5c.6-.6 2.2-1.2 3.3-1.7 1.2-.5 2.4-.8 3.6-.8 1.6 0 2.9.3 3.9.9.9.6 1.6 1.5 2 2.7.4 1.1.6 2.5.6 4v15.1h-6.8v-11-3.3c0-.6-.1-1.3-.4-1.8s-.9-.9-1.6-1c-.6-.1-1.3 0-1.9.1-.8.2-1.5.6-2.2 1-.1 0-.6.3-.6.4v15.7h-7 0 0 0zm88.1-22.5H227c-2.3 0-4.1.3-5.6.8-1.4.6-2.5 1.4-3.2 2.5s-1 2.5-1 4.2c0 .9.1 1.7.3 2.5s.6 1.6 1.1 2.2c.5.7 1.2 1.3 2.1 1.8-1.2.3-2.1.8-2.8 1.6-.1.1-.1.2-.2.3-.3.4-.4.9-.4 1.4v2.4c0 .5.1 1 .4 1.4.3.5.7.9 1.2 1.3.1.1.2.1.3.2-1 .5-1.6 1.5-1.6 2.5v5c0 1.2.7 2.2 1.8 2.6h.1c1.1.4 2.4.6 3.8.6h7.1c3.1 0 5.3-.7 6.7-2s2.1-3.2 2.1-5.5v-.5c0-1.7-.3-3.1-1-4.2-.7-1-1.6-1.8-2.9-2.2-1.3-.5-2.7-.7-4.5-.7h-5.9c-.5 0-.9-.1-1.3-.2-.4-.2-.6-.5-.6-.9s.3-.8.7-1 .9-.3 1.4-.3h4.2c2 0 3.6-.3 4.8-.9s2.1-1.4 2.7-2.5.9-2.3.9-3.6c0-.8-.1-1.5-.2-2s-.3-1-.5-1.4-.4-.7-.6-1l2.9-.7.2-3.7zm-16.3 25.1c.2-.3.5-.6.9-.7.4-.2.9-.3 1.4-.3h4.1c.6 0 1.1.1 1.5.2.4.2.7.4.9.7a1.69 1.69 0 0 1 .3 1v.6c0 .7-.3 1.1-.8 1.5-.5.3-1.2.5-2 .5h-4.1c-.9 0-1.6-.2-2-.6s-.7-.9-.7-1.5v-.3c.2-.5.3-.8.5-1.1h0 0 0zm7.8-15.6c-.2.4-.4.7-.8.9s-.9.3-1.5.3h-2.4c-.9 0-1.5-.2-1.9-.6s-.6-1.1-.6-2 .2-1.6.6-2 1-.6 1.9-.6h2.4c.6 0 1.1.1 1.5.3s.6.5.8.8c.2.4.3.9.3 1.5-.1.6-.2 1-.3 1.4zM161.6 3v7.1H156c-1.3 0-2.4 1.1-2.4 2.4v13h-7.1V3h5.8l1.3 2.7c0-.1.3-.6.9-1.1 1.1-1.1 2.6-1.6 4.1-1.6h3 0zm20.7 13.2V21c0 2.7-2.2 4.8-4.8 4.8h-6.6c-4.6 0-7.1-1.2-7.1-1.2v-4.4h10.7a.68.68 0 0 0 .7-.7h0V18a.68.68 0 0 0-.7-.7h0-5.8-.4-.6c-2.7 0-4.8-2.2-4.8-4.8V7.9c0-2.7 2.2-4.8 4.8-4.8h6.6c5.8.3 6.8 1 6.8 1v4.5h-10.4a.68.68 0 0 0-.7.7h0v1.3a.68.68 0 0 0 .7.7h0 5.8.4.6c2.7.1 4.8 2.2 4.8 4.9h0zm-82.5 97.6c-1.8 0-3.3-.3-4.4-.8s-1.9-1.4-2.4-2.6-.7-2.8-.6-4.9l.2-8.6H89v-4.6l3.8-1.1.9-6.3h5.7v6.3h4.9v5.7h-4.9v8.5c0 .5 0 .9.1 1.2s.2.6.4.8.4.4.6.5.5.2.8.2l2.9.3v5.4h-4.4 0zm16.3.2c-1.9 0-3.6-.2-4.9-.6-1.4-.4-2.5-1.1-3.3-2s-1.4-2.1-1.8-3.6-.5-3.3-.5-5.4c0-2.3.2-4.2.6-5.7s1-2.7 1.8-3.5c.8-.9 1.9-1.5 3.3-1.8 1.4-.4 3-.5 4.9-.5s3.6.2 4.9.6 2.4 1 3.2 1.9 1.4 2.1 1.8 3.6.6 3.4.6 5.6-.2 4.1-.5 5.5c-.4 1.5-1 2.7-1.8 3.5-.8.9-1.9 1.5-3.3 1.9-1.3.3-3 .5-5 .5zm0-5.8c.5 0 1.1-.1 1.6-.2a1.59 1.59 0 0 0 1-.8c.3-.4.4-1 .6-1.7.1-.8.2-1.8.2-3.1 0-1-.1-2.1-.2-3.1-.1-.8-.3-1.4-.6-1.7-.3-.4-.6-.6-1-.7-.5-.1-1.1-.2-1.6-.2-.6 0-1.1.1-1.6.2-.4.1-.8.4-1 .7-.3.4-.5 1-.6 1.7-.1.8-.2 1.8-.2 3.1 0 1 .1 2.1.2 3.1.1.8.3 1.4.6 1.7.3.4.6.6 1 .8.5.1 1 .2 1.6.2zm12.4 5.6V80.2h7.3v18.4h1.1l5.6-7.4h8l-7.5 9.9 7.8 12.7h-7.9l-6.2-9.9h-1v9.9h-7.2 0 0zm42.6.2V91.4h6l1.3 2.2c.9-.8 1.9-1.4 3-1.8 1.2-.5 2.5-.8 3.8-.8 1.9 0 3.4.4 4.4 1.1s1.7 1.7 2.1 3 .6 2.6.6 4.2V114H185v-13.8c0-.6-.1-1.2-.3-1.6a1.96 1.96 0 0 0-.9-.9c-.4-.2-.9-.3-1.4-.3s-1 .1-1.4.2c-.5.1-.9.3-1.3.5a4.44 4.44 0 0 0-1.1.8v15l-7.5.1h0z" fill="#fafafa"/><g transform="translate(38.309 38.3)"><g transform="matrix(1 0 0 1 38.30937 38.300005)"><path d="M-21.409-12.7l-3.1-1.8c1.2-2 2.7-3.9 4.4-5.6l.1-.1 2.5 2.5c-1.6 1.6-2.8 3.2-3.9 5zm-1.6 3.2l-3.3-1.4c-.9 2.2-1.6 4.5-1.9 6.8l3.6.5c.2-2.1.8-4.1 1.6-5.9zm23-15.4v-3.6h-.1a27.43 27.43 0 0 0-7 .9l.9 3.5c2.1-.5 4.1-.8 6.2-.8zm10.9-1.4c-2.2-.9-4.5-1.6-6.8-1.9l-.5 3.5c2.1.3 4.1.9 6 1.7l1.3-3.3zm12.2 16.8l3.3-1.3c-.9-2.2-2.1-4.3-3.5-6.2l-2.9 2.1c1.3 1.6 2.3 3.5 3.1 5.4zm-3-10.6c-1.7-1.6-3.5-3.1-5.5-4.3l-1.8 3.1c1.7 1 3.4 2.3 4.9 3.8l2.4-2.6zM-25.009 0h-3.5a27.43 27.43 0 0 0 .9 7l3.4-.8c-.5-2-.8-4.1-.8-6.2zm15.5-23.1l-1.4-3.3c-2.2.9-4.3 2.1-6.2 3.5l2.1 2.9c1.7-1.2 3.6-2.2 5.5-3.1zm32.6 32.7l3.3 1.4c.9-2.2 1.5-4.5 1.8-6.9l-3.5-.5c-.3 2.1-.8 4.1-1.6 6zM9.491 23l1.4 3.3c2.2-.9 4.3-2.1 6.1-3.5l-2.1-2.9c-1.7 1.3-3.5 2.3-5.4 3.1zm-32.5-13.5l-3.3 1.4c.9 2.2 2.1 4.3 3.5 6.2l2.9-2.2c-1.3-1.7-2.3-3.5-3.1-5.4zM24.191-6c.5 2 .8 4 .8 6.1h3.5c.1-2.5-.2-4.8-.9-7l-3.4.9zm-6.6 23.6l2.5 2.5c1.8-1.7 3.2-3.6 4.4-5.6l-3.1-1.8c-1.1 1.8-2.3 3.4-3.8 4.9zm-37.7 2.5c1.7 1.7 3.6 3.2 5.6 4.4l1.8-3.1c-1.8-1.1-3.4-2.3-4.9-3.8l-2.5 2.5zm20.1 4.8v3.6a27.43 27.43 0 0 0 7-.9l-.9-3.5c-2 .5-4 .8-6.1.8zm-11 1.4c2.2.9 4.5 1.6 6.9 1.9l.5-3.6c-2.1-.3-4.1-.8-6-1.6l-1.4 3.3z" fill="#5bd4d0"/><animateTransform attributeName="transform" type="rotate" from="0" to="359.999998" dur="12s" repeatCount="indefinite"/></g></g></svg>
