<svg xmlns="http://www.w3.org/2000/svg" viewBox="0 0 179.4 55.4" shape-rendering="geometricPrecision"><path d="M25.9 0C11.598.006.006 11.598 0 25.9.006 40.202 11.598 51.794 25.9 51.8c14.302-.006 25.894-11.598 25.9-25.9C51.7 11.6 40.1 0 25.9 0zm0 49.3C13 49.3 2.5 38.8 2.5 25.9S13 2.5 25.9 2.5 49.3 13 49.3 25.9 38.8 49.3 25.9 49.3zm0-1.9c11.9 0 21.5-9.6 21.5-21.4v-.1C47.4 14 37.8 4.4 26 4.4h-.1C14 4.4 4.3 14 4.3 25.9c0 11.8 9.7 21.5 21.6 21.5zm38.3-27.1h-4.9V5.1h4l.8 1.5c.6-.5 1.3-.9 2-1.2.9-.4 1.8-.6 3-.6.9 0 1.7.2 2.4.6.6.4 1.1.9 1.4 1.5.4-.3.9-.6 1.4-.9s1.1-.6 1.8-.8a6.28 6.28 0 0 1 1.9-.3c1.3 0 2.2.2 2.9.7s1.2 1.1 1.5 2c.3.8.4 1.9.4 3.1v9.7h-4.9V11c0-.4-.1-.8-.2-1-.2-.3-.4-.5-.6-.6-.3-.1-.6-.2-1-.2-.5 0-.9.1-1.4.3s-.9.4-1.2.7v.5.4 9.2h-4.9V11c0-.4-.1-.8-.2-1-.2-.3-.4-.5-.6-.6-.3-.1-.6-.2-.9-.2s-.6 0-1 .1l-.9.3c-.3.2-.5.3-.7.5v10.2h-.1zm21.5-.8c-.7-.7-1.1-1.6-1.1-2.8v-1.5c0-1.2.4-2.1 1.2-2.9s2.1-1.1 3.9-1.1h3.5v-.7c0-.4-.1-.8-.2-1-.2-.3-.5-.6-.9-.6-.4-.1-1.1-.2-2-.2h-4.5V5.9c.8-.3 1.6-.5 2.6-.7s2.2-.3 3.7-.3c1.3 0 2.4.2 3.3.5s1.6.8 2.1 1.6c.5.7.8 1.8.8 3.2v10.2h-3.9l-.8-1.6c-.2.2-.4.3-.7.5s-.6.4-1.1.6c-.4.2-.9.3-1.4.5-.5.1-1.1.2-1.7.2-1.1-.1-2.1-.5-2.8-1.1zm3.8-3.7c0 .3.1.6.2.8s.3.3.5.4.5.1.8.1h.5c.2 0 .4-.1.5-.1.2-.1.3-.1.5-.1.2-.1.3-.1.4-.1.1-.1.2-.1.3-.1v-3.1l-1.8.2c-.6.1-1.1.2-1.4.5-.3.2-.5.6-.5 1.1v.4zm15.9-4.5c.3-.3.6-.6.9-.8s.7-.4 1.1-.5.9-.2 1.4-.2h.9c.3 0 .6 0 .9.1V5c-.2-.1-.4-.1-.6-.1h-.6c-.9 0-1.7.2-2.3.7s-1.2 1-1.7 1.7l-1.1-2.2h-3.8v15.2h4.9v-9zm16.1 8.8c1-.3 1.7-.7 2.2-1.3s.7-1.4.7-2.5v-1.4c0-1.3-.3-2.3-1-3s-1.8-1.1-3.5-1.1h-2.5c-.3 0-.6 0-.9-.1-.2-.1-.4-.2-.5-.3s-.1-.3-.1-.5v-.4c0-.3.1-.6.3-.7s.5-.2.9-.2h6.5V5.7c-.3-.1-.8-.3-1.4-.4s-1.3-.2-2-.3-1.4-.1-2.1-.1c-1.6 0-2.9.2-3.9.5-.9.4-1.6.9-2 1.6s-.6 1.5-.6 2.5v.9c0 1 .2 1.9.6 2.5s1 1.1 1.7 1.3c.7.3 1.5.4 2.4.4h2.5c.5 0 .9.1 1.1.3s.3.4.3.6v.4c0 .2 0 .4-.1.5a1.38 1.38 0 0 1-.4.3c-.2.1-.4.1-.8.1H112v2.9c.3.1.7.3 1.2.4s1 .2 1.5.2c.5.1 1.1.1 1.6.1s1.1.1 1.6.1c1.2 0 2.4-.1 3.6-.4zm12.4-.8c-.3.2-.6.4-1.1.6-.4.2-.9.3-1.4.5-.5.1-1.1.2-1.7.2-1.2 0-2.1-.3-2.8-1s-1.1-1.6-1.1-2.8v-1.5c0-1.2.4-2.1 1.2-2.9s2.1-1.1 3.9-1.1h3.5v-.7c0-.4-.1-.8-.2-1-.2-.3-.5-.6-.9-.6-.4-.1-1.1-.2-2-.2h-4.5V5.9c.8-.3 1.6-.5 2.6-.7s2.2-.3 3.7-.3c1.3 0 2.4.2 3.3.5s1.6.8 2.1 1.6c.5.7.8 1.8.8 3.2v10.2h-3.9l-.8-1.6c-.1.1-.4.3-.7.5h0zm-.2-2.5c.2-.1.3-.1.4-.1.1-.1.2-.1.3-.1v-3.1l-1.8.2c-.6.1-1.1.2-1.4.5-.3.2-.5.6-.5 1.1v.6c0 .3.1.6.2.8s.3.3.5.4.5.1.8.1h.5c.2 0 .4-.1.5-.1.2-.2.4-.2.5-.3zm17.1-6.8c.2.3.2.6.2 1v9.3h4.9v-9.9c0-1-.1-2-.4-2.8-.2-.8-.7-1.5-1.4-2s-1.7-.7-2.9-.7c-.9 0-1.7.2-2.5.5-.8.4-1.5.8-2 1.2l-.8-1.5h-4.1v15.2h4.9V10.2c.2-.2.4-.4.7-.5.3-.2.6-.3.9-.3.3-.1.6-.1 1-.1s.7.1.9.2c.2 0 .4.2.6.5h0zM67 42.4h-3.3c.1.6.2 1.1.3 1.4.2.4.5.6 1 .8s1.2.2 2.2.2h4.3v2.9c-.7.2-1.5.3-2.4.5s-2 .3-3.2.3c-1.7 0-3.1-.2-4.1-.7s-1.8-1.2-2.3-2.4c-.5-1.1-.7-2.7-.7-4.7 0-2.1.2-3.7.6-4.8.4-1.2 1.2-2 2.2-2.4 1-.5 2.4-.7 4.1-.7 1.6 0 2.8.2 3.7.5s1.6.8 2 1.6.6 1.9.6 3.3c0 1.1-.2 1.9-.6 2.5s-1 1.1-1.8 1.3c-.7.3-1.6.4-2.6.4zm-.6-2.9c.5 0 .8-.1 1-.3s.3-.5.3-1-.1-.8-.2-1.1-.3-.5-.7-.6-.8-.2-1.2-.2c-.5 0-.9.1-1.2.3s-.5.5-.7 1c-.1.5-.2 1.1-.2 1.9h2.9 0zm21.4-6.4h-5l-2.6 4.3-3-4.3h-4.9l5.1 7.4-5.1 7.9h5l2.6-4.3 3 4.3h4.9L82.7 41l5.1-7.9zM94 44.5c-.5-.2-.8-.6-1-1.2s-.3-1.5-.3-2.6c0-1.2.1-2 .3-2.7.2-.6.5-1 1-1.3.6-.3 1.3-.4 2-.4h3.8v-2.8c-1-.3-1.9-.5-2.7-.6s-1.7-.2-2.7-.2c-1.1 0-2 .1-2.9.4-.8.2-1.5.7-2.1 1.3-.5.6-1 1.4-1.3 2.4s-.4 2.3-.4 3.9c0 1.5.2 2.7.5 3.7s.8 1.8 1.3 2.4a4.45 4.45 0 0 0 2.1 1.2c.8.2 1.7.4 2.6.4.7 0 1.3 0 2-.1l2-.3c.7-.2 1.2-.3 1.7-.5v-2.8h-4c-.8.1-1.5 0-1.9-.2h0zm20-11c-.7-.5-1.6-.7-2.8-.7-.9 0-1.7.2-2.6.6-.8.4-1.5.8-2 1.2v-7.8h-4.9v21.6h4.9V38.2c.2-.2.5-.3.7-.5.3-.2.6-.3.9-.4s.6-.1 1-.1c.3 0 .6.1.9.2s.5.3.7.6a1.69 1.69 0 0 1 .3 1v9.3h4.9v-10c0-1.1-.2-2.1-.5-2.9s-.8-1.5-1.5-1.9zm16.5 1.4c.5.7.8 1.8.8 3.2v10.2h-3.9l-.8-1.6c-.2.2-.4.3-.7.5s-.6.4-1.1.6c-.4.2-.9.3-1.4.5-.5.1-1.1.2-1.7.2-1.2 0-2.1-.3-2.8-1s-1.1-1.6-1.1-2.8v-1.5c0-1.2.4-2.1 1.2-2.9s2.1-1.1 3.9-1.1h3.5v-.7c0-.4-.1-.8-.2-1-.2-.3-.5-.6-.9-.6-.4-.1-1.1-.2-2-.2h-4.5v-2.8c.8-.3 1.6-.5 2.6-.7s2.2-.3 3.7-.3c1.3 0 2.4.2 3.3.5.9.2 1.6.8 2.1 1.5zm-4.1 6.6l-1.8.2c-.6.1-1.1.2-1.4.5-.3.2-.5.6-.5 1.1v.6c0 .3.1.6.2.8s.3.3.5.4.5.1.8.1h.5c.2 0 .4-.1.5-.1.2-.1.3-.1.5-.1.2-.1.3-.1.4-.1.1-.1.2-.1.3-.1v-3.3zm19.7-7.9c-.7-.5-1.7-.7-2.9-.7-.9 0-1.7.2-2.5.5-.8.4-1.5.8-2 1.2l-.9-1.5h-4v15.2h4.9V38.2c.2-.2.4-.4.7-.5.3-.2.6-.3.9-.3.3-.1.6-.1 1-.1s.7.1.9.2a.9.9 0 0 1 .6.6c.2.3.2.6.2 1v9.3h4.9v-9.9c0-1-.1-2-.4-2.8-.2-1-.7-1.7-1.4-2.1zm10.7-.5h8.3v2.7l-2 .5c.2.2.3.4.4.7.1.2.2.5.3.9s.1.8.1 1.3c0 .9-.2 1.7-.6 2.4s-1 1.2-1.8 1.6-1.9.6-3.2.6h-2.8c-.4 0-.7.1-1 .2s-.4.3-.4.7c0 .3.1.5.4.6.2.1.5.1.9.1h3.9c1.2 0 2.1.2 3 .5.8.3 1.5.8 1.9 1.5.5.7.7 1.6.7 2.7v.3c0 1.5-.5 2.8-1.4 3.7s-2.4 1.3-4.4 1.3h-4.7c-.9 0-1.8-.1-2.5-.4-.8-.3-1.4-.7-1.8-1.2-.5-.6-.7-1.3-.7-2v-.4c0-.8.2-1.5.7-2.1.4-.5 1-.9 1.6-1.2-.1-.1-.2-.1-.3-.2-.9-.7-1.3-1.5-1.3-2.5 0-.8.2-1.4.7-2 .4-.5 1-.9 1.8-1.1-.6-.3-1-.7-1.4-1.2-.3-.5-.6-.9-.7-1.5-.2-.5-.2-1.1-.2-1.7 0-1.1.2-2 .7-2.8s1.2-1.3 2.1-1.7c.9-.1 2.2-.3 3.7-.3zm-1 15.9c-.4 0-.7.1-1 .2-.2.1-.4.3-.6.5-.1.2-.2.5-.2.7v.2c0 .4.1.7.4 1 .3.2.7.4 1.3.4h2.7c.5 0 1-.1 1.3-.3s.5-.5.5-1v-.4c0-.3-.1-.5-.2-.7s-.3-.3-.6-.5c-.2-.1-.6-.1-1-.1h-2.6 0zm2.1-12.3h-1.6c-.6 0-1 .1-1.3.4-.3.2-.4.7-.4 1.3s.1 1 .4 1.3.7.4 1.2.4h1.6c.4 0 .8-.1 1-.2s.4-.3.5-.6.2-.6.2-.9c0-.4-.1-.7-.2-1s-.3-.5-.5-.6c-.2 0-.5-.1-.9-.1zm16.7 8.1h4.3v2.9c-.7.2-1.5.3-2.4.5s-2 .3-3.2.3c-1.7 0-3.1-.2-4.1-.7s-1.8-1.2-2.3-2.4c-.5-1.1-.7-2.7-.7-4.7 0-2.1.2-3.7.6-4.8.4-1.2 1.2-2 2.2-2.4 1-.5 2.4-.7 4.1-.7 1.6 0 2.8.2 3.7.5s1.6.8 2 1.6.6 1.9.6 3.3c0 1.1-.2 1.9-.6 2.5s-1 1.1-1.8 1.3-1.7.4-2.7.4H171c.1.6.2 1.1.3 1.4.2.4.5.6 1 .8.6.1 1.4.2 2.3.2zm-3.6-5.3h2.8c.5 0 .8-.1 1-.3s.3-.5.3-1-.1-.8-.2-1.1-.3-.5-.7-.6-.8-.2-1.2-.2c-.5 0-.9.1-1.2.3s-.5.5-.7 1c0 .4-.1 1.1-.1 1.9h0z" fill="#010101"/><path d="M25.9,2.5C13,2.4,2.6,12.8,2.5,25.7v.2C2.5,38.8,13,49.3,25.9,49.3s23.4-10.5,23.4-23.4c-.1-13-10.5-23.4-23.4-23.4Zm0,44.9C14,47.4,4.3,37.7,4.3,25.9C4.3,14,14,4.3,25.9,4.3s21.5,9.6,21.5,21.4v.1c0,11.9-9.7,21.6-21.5,21.6Zm1.7-22.5l-2.4-2.4L18.8,29c-2-2-2-5.3,0-7.4l2.8-2.8-2.3-2.3l9.3-.9-1,9.3Zm-3.5,1.8l2.4,2.4L33,22.6c2,2,2,5.3,0,7.4l-2.8,2.8l2.3,2.3-9.3.9.9-9.3Z" fill="#fafafa"/><g transform="translate(25.85 25.85)"><g transform="matrix(1 0 0 1 25.85 25.850002)"><path d="M-14.55-8.65l-2-1.2c.8-1.4 1.8-2.6 3-3.8l1.7 1.7c-1.1 1-1.9 2.1-2.7 3.3zm8.1-6.9v-.1l-.9-2.2a17.55 17.55 0 0 0-4.2 2.4l1.5 1.9c1.1-.8 2.3-1.5 3.6-2zm-9.2 9.1l-2.2-.9c-.6 1.5-1 3-1.3 4.6l2.4.3c.2-1.4.6-2.7 1.1-4zm23.1-11.4a18.35 18.35 0 0 0-4.6-1.2l-.3 2.4c1.3.2 2.7.6 4 1.1l.9-2.3zm9.4 17.9h2.4c0-1.6-.2-3.2-.6-4.7l-2.3.6c.3 1.3.5 2.7.5 4.1zm-33.7-.1h-2.4c0 1.6.2 3.2.6 4.8l2.3-.6c-.3-1.4-.5-2.8-.5-4.2zm32.5-6.4l2.2-1a17.55 17.55 0 0 0-2.4-4.2l-1.9 1.5c.8 1.2 1.6 2.4 2.1 3.7zm-1.9-7.2c-1.2-1.1-2.5-2.1-3.8-2.9l-1.3 2.1c1.2.7 2.3 1.6 3.3 2.6l1.8-1.8zm1.8 20.2l2.3.9a18.35 18.35 0 0 0 1.2-4.6l-2.4-.3c-.2 1.4-.6 2.7-1.1 4zm-9.1 9l.9 2.3c1.5-.6 2.9-1.4 4.2-2.5l-1.5-1.9c-1.1.9-2.3 1.6-3.6 2.1zm-6.4 1.3v2.4c1.5 0 3.1-.1 4.7-.6l-.6-2.3c-1.3.3-2.7.5-4.1.5zm11.8-4.9l1.7 1.7c1.2-1.1 2.2-2.4 3-3.7l-2.1-1.3c-.8 1.2-1.6 2.3-2.6 3.3zm-27.5-5.5l-2.2.9a17.55 17.55 0 0 0 2.4 4.2l1.9-1.5c-.8-1.1-1.6-2.3-2.1-3.6zm11.5-22.8c1.4-.4 2.7-.5 4.1-.5v-2.4c-1.6 0-3.2.2-4.7.6l.6 2.3zm-9.5 29.9c1.1 1.2 2.4 2.2 3.8 3l1.2-2.1c-1.2-.8-2.3-1.6-3.3-2.6l-1.7 1.7zm6.3 4.3c1.4.6 3 1 4.6 1.3l.3-2.4c-1.4-.2-2.7-.6-4-1.1l-.9 2.2z" fill="#5bd4d0"/><animateTransform attributeName="transform" type="rotate" from="0" to="359.999998" dur="12s" repeatCount="indefinite"/></g></g></svg>
