<?xml version="1.0" encoding="utf-8"?>
<!-- Generator: Adobe Illustrator 27.0.0, SVG Export Plug-In . SVG Version: 6.00 Build 0)  -->
<svg version="1.1" id="Layer_1" shape-rendering="geometricPrecision"
	 xmlns="http://www.w3.org/2000/svg" xmlns:xlink="http://www.w3.org/1999/xlink" x="0px" y="0px" viewBox="0 0 180.565 78.432"
	 style="enable-background:new 0 0 180.565 78.432;" xml:space="preserve">
<style type="text/css">
	.st0{fill:#010101;}
	.st1{fill:#FAFAFA;}
	.st2{fill:#5BD4D0;}
</style>
<g>
	<path class="st0" d="M52.35,26.83c-0.1-14.3-11.7-25.9-25.9-25.9C12.148,0.936,0.556,12.528,0.55,26.83
		c0.006,14.302,11.598,25.894,25.9,25.9C40.752,52.724,52.344,41.132,52.35,26.83z M26.45,50.23c-12.9,0-23.4-10.5-23.4-23.4v-0.2
		c0.1-12.9,10.5-23.3,23.4-23.2c12.9,0,23.3,10.4,23.4,23.4C49.85,39.73,39.35,50.23,26.45,50.23z"/>
	<path class="st0" d="M26.675,5.33h-0.1c-11.872,0-21.55,9.6-21.55,21.5c0,11.8,9.677,21.5,21.55,21.5
		c11.872,0,21.45-9.6,21.45-21.4v-0.1C48.025,14.93,38.447,5.33,26.675,5.33z"/>
	<path class="st1" d="M26.45,3.43c-12.9-0.1-23.3,10.3-23.4,23.2v0.2c0,12.9,10.5,23.4,23.4,23.4c12.9,0,23.4-10.5,23.4-23.4
		C49.75,13.83,39.35,3.43,26.45,3.43z M26.575,48.33c-11.872,0-21.55-9.7-21.55-21.5c0-11.9,9.677-21.5,21.55-21.5h0.1
		c11.773,0,21.35,9.6,21.35,21.5v0.1C48.025,38.73,38.447,48.33,26.575,48.33z M35.715,25.073v7.83h-3.838v-8.007
		c0-0.343-0.058-0.611-0.178-0.822c-0.12-0.207-0.281-0.359-0.488-0.454c-0.207-0.095-0.459-0.145-0.752-0.145
		c-0.372,0-0.74,0.079-1.111,0.231c-0.351,0.145-0.653,0.322-0.909,0.533v8.66h-3.838v-8.007c0-0.343-0.058-0.611-0.178-0.822
		c-0.12-0.207-0.281-0.359-0.488-0.454c-0.207-0.095-0.45-0.145-0.731-0.145c-0.252,0-0.504,0.033-0.756,0.099
		c-0.252,0.066-0.479,0.161-0.69,0.277c-0.207,0.12-0.397,0.252-0.574,0.397v8.652h-3.838V20.755h3.173l0.665,1.178
		c0.488-0.372,1.021-0.69,1.595-0.967c0.578-0.273,1.318-0.409,2.219-0.409c0.74,0,1.355,0.157,1.843,0.467
		c0.487,0.314,0.855,0.702,1.111,1.178c0.322-0.236,0.698-0.483,1.12-0.744c0.421-0.26,0.88-0.475,1.376-0.645
		c0.496-0.169,0.987-0.256,1.475-0.256c0.992,0,1.76,0.182,2.31,0.541c0.545,0.364,0.934,0.88,1.153,1.554
		c0.223,0.673,0.331,1.475,0.331,2.409V25.073z"/>
	<path class="st2" d="M11.95,18.13l-2-1.2c0.8-1.4,1.8-2.6,3-3.8l1.7,1.7C13.55,15.83,12.75,16.93,11.95,18.13z M20.05,11.23v-0.1
		l-0.9-2.2c-1.504,0.602-2.917,1.41-4.2,2.4l1.5,1.9C17.55,12.43,18.75,11.73,20.05,11.23z M10.85,20.33l-2.2-0.9
		c-0.6,1.5-1,3-1.3,4.6l2.4,0.3C9.95,22.93,10.35,21.63,10.85,20.33z M33.95,8.93c-1.475-0.598-3.021-1.001-4.6-1.2l-0.3,2.4
		c1.3,0.2,2.7,0.6,4,1.1L33.95,8.93z M43.35,26.83h2.4c0-1.6-0.2-3.2-0.6-4.7l-2.3,0.6C43.15,24.03,43.35,25.43,43.35,26.83z
		 M9.65,26.73h-2.4c0,1.6,0.2,3.2,0.6,4.8l2.3-0.6C9.85,29.53,9.65,28.13,9.65,26.73z M42.15,20.33l2.2-1
		c-0.602-1.504-1.41-2.917-2.4-4.2l-1.9,1.5C40.85,17.83,41.65,19.03,42.15,20.33z M40.25,13.13c-1.2-1.1-2.5-2.1-3.8-2.9l-1.3,2.1
		c1.2,0.7,2.3,1.6,3.3,2.6L40.25,13.13z M42.05,33.33l2.3,0.9c0.598-1.475,1.001-3.021,1.2-4.6l-2.4-0.3
		C42.95,30.73,42.55,32.03,42.05,33.33z M32.95,42.33l0.9,2.3c1.5-0.6,2.9-1.4,4.2-2.5l-1.5-1.9
		C35.45,41.13,34.25,41.83,32.95,42.33z M26.55,43.63v2.4c1.5,0,3.1-0.1,4.7-0.6l-0.6-2.3C29.35,43.43,27.95,43.63,26.55,43.63z
		 M38.35,38.73l1.7,1.7c1.2-1.1,2.2-2.4,3-3.7l-2.1-1.3C40.15,36.63,39.35,37.73,38.35,38.73z M10.85,33.23l-2.2,0.9
		c0.602,1.504,1.41,2.917,2.4,4.2l1.9-1.5C12.15,35.73,11.35,34.53,10.85,33.23z M22.35,10.43c1.4-0.4,2.7-0.5,4.1-0.5v-2.4
		c-1.6,0-3.2,0.2-4.7,0.6L22.35,10.43z M12.85,40.33c1.1,1.2,2.4,2.2,3.8,3l1.2-2.1c-1.2-0.8-2.3-1.6-3.3-2.6L12.85,40.33z
		 M19.15,44.63c1.4,0.6,3,1,4.6,1.3l0.3-2.4c-1.4-0.2-2.7-0.6-4-1.1L19.15,44.63z"/>
	<path d="M82.693,8.455c0.27,0.865,0.404,1.906,0.404,3.123v9.782h-4.964v-9.297c0-0.438-0.074-0.78-0.223-1.027
		s-0.348-0.428-0.6-0.542c-0.251-0.114-0.553-0.171-0.906-0.171c-0.428,0-0.864,0.095-1.311,0.285
		c-0.446,0.19-0.818,0.418-1.115,0.685c0,0.133,0.004,0.276,0.014,0.428c0.009,0.152,0.014,0.295,0.014,0.428v9.212h-4.964v-9.297
		c0-0.438-0.075-0.78-0.223-1.027c-0.149-0.247-0.344-0.428-0.585-0.542c-0.242-0.114-0.54-0.171-0.893-0.171
		c-0.297,0-0.595,0.038-0.893,0.114c-0.297,0.076-0.571,0.186-0.822,0.328s-0.488,0.319-0.711,0.528V21.36h-4.964V6.016h4.155
		l0.809,1.512c0.632-0.494,1.301-0.913,2.008-1.255s1.627-0.514,2.761-0.514c0.93,0,1.701,0.195,2.315,0.585
		c0.613,0.39,1.078,0.898,1.394,1.526c0.409-0.323,0.874-0.646,1.395-0.97c0.52-0.323,1.087-0.594,1.701-0.813
		c0.613-0.218,1.217-0.328,1.812-0.328c1.264,0,2.245,0.233,2.942,0.699C81.94,6.924,82.424,7.59,82.693,8.455z M97.751,7.87
		c0.492,0.76,0.738,1.835,0.738,3.223V21.36h-3.932l-0.781-1.568c-0.166,0.171-0.389,0.352-0.668,0.542
		c-0.279,0.19-0.623,0.381-1.032,0.57c-0.409,0.19-0.864,0.342-1.366,0.457s-1.06,0.171-1.673,0.171
		c-1.134,0-2.06-0.347-2.775-1.041c-0.716-0.694-1.074-1.649-1.074-2.867v-1.483c0-1.16,0.404-2.115,1.213-2.866
		c0.809-0.751,2.086-1.126,3.834-1.126h3.291v-0.685c0-0.418-0.07-0.751-0.209-0.998c-0.141-0.247-0.418-0.428-0.838-0.542
		c-0.418-0.114-1.063-0.171-1.937-0.171h-4.434V6.843c0.762-0.285,1.641-0.528,2.635-0.728c0.994-0.199,2.208-0.299,3.64-0.299
		c1.264,0,2.352,0.152,3.262,0.457S97.259,7.11,97.751,7.87z M93.527,14.515l-1.617,0.171c-0.596,0.076-1.037,0.233-1.325,0.471
		c-0.288,0.238-0.432,0.584-0.432,1.041v0.599c0,0.304,0.06,0.551,0.181,0.741c0.121,0.19,0.293,0.324,0.516,0.399
		c0.223,0.076,0.483,0.114,0.78,0.114c0.111,0,0.246-0.015,0.404-0.043s0.316-0.062,0.475-0.1s0.307-0.081,0.445-0.128
		c0.141-0.047,0.26-0.095,0.363-0.143c0.102-0.047,0.172-0.071,0.209-0.071V14.515z M110.007,5.788
		c-0.874,0-1.622,0.242-2.244,0.727c-0.623,0.485-1.177,1.051-1.659,1.697l-1.088-2.196h-3.876V21.36h4.964v-8.984
		c0.26-0.323,0.548-0.58,0.864-0.77c0.315-0.19,0.669-0.337,1.06-0.442s0.827-0.157,1.311-0.157c0.26,0,0.548,0.014,0.864,0.042
		c0.316,0.029,0.632,0.062,0.948,0.1V5.931c-0.186-0.057-0.386-0.095-0.6-0.114C110.337,5.798,110.157,5.788,110.007,5.788z
		 M120.661,11.692h-2.538c-0.316,0-0.576-0.023-0.78-0.071c-0.205-0.047-0.354-0.128-0.446-0.242
		c-0.094-0.114-0.14-0.285-0.14-0.513v-0.399c0-0.304,0.093-0.518,0.279-0.642c0.186-0.124,0.464-0.186,0.836-0.186h6.47V6.701
		c-0.334-0.152-0.809-0.29-1.422-0.414c-0.613-0.124-1.269-0.223-1.966-0.299s-1.381-0.114-2.05-0.114
		c-1.655,0-2.942,0.181-3.862,0.542s-1.566,0.884-1.938,1.568s-0.558,1.512-0.558,2.481v0.941c0,1.065,0.209,1.911,0.628,2.539
		c0.418,0.627,0.971,1.079,1.659,1.354c0.688,0.276,1.459,0.414,2.314,0.414h2.426c0.521,0,0.864,0.071,1.032,0.214
		c0.167,0.143,0.251,0.347,0.251,0.613v0.399c0,0.19-0.033,0.347-0.098,0.47c-0.065,0.124-0.182,0.209-0.349,0.257
		c-0.167,0.048-0.4,0.071-0.697,0.071h-6.86v2.966c0.335,0.152,0.729,0.281,1.186,0.385c0.455,0.105,0.943,0.186,1.464,0.243
		c0.521,0.057,1.05,0.104,1.59,0.143c0.539,0.038,1.068,0.057,1.589,0.057c1.413,0,2.589-0.133,3.528-0.399
		c0.938-0.266,1.649-0.708,2.133-1.326c0.483-0.618,0.726-1.44,0.726-2.467v-1.511c0-1.274-0.34-2.282-1.019-3.023
		C123.37,12.063,122.241,11.692,120.661,11.692z M139.247,7.87c0.492,0.76,0.738,1.835,0.738,3.223V21.36h-3.932l-0.781-1.568
		c-0.167,0.171-0.39,0.352-0.669,0.542c-0.279,0.19-0.623,0.381-1.032,0.57c-0.409,0.19-0.864,0.342-1.366,0.457
		s-1.06,0.171-1.673,0.171c-1.135,0-2.06-0.347-2.774-1.041c-0.717-0.694-1.074-1.649-1.074-2.867v-1.483
		c0-1.16,0.404-2.115,1.213-2.866c0.809-0.751,2.087-1.126,3.835-1.126h3.29v-0.685c0-0.418-0.069-0.751-0.209-0.998
		s-0.418-0.428-0.837-0.542c-0.418-0.114-1.064-0.171-1.938-0.171h-4.435V6.843c0.763-0.285,1.641-0.528,2.636-0.728
		c0.994-0.199,2.207-0.299,3.64-0.299c1.264,0,2.352,0.152,3.263,0.457C138.051,6.577,138.753,7.11,139.247,7.87z M135.021,14.515
		l-1.617,0.171c-0.595,0.076-1.036,0.233-1.324,0.471c-0.289,0.238-0.433,0.584-0.433,1.041v0.599c0,0.304,0.061,0.551,0.182,0.741
		c0.12,0.19,0.293,0.324,0.516,0.399c0.223,0.076,0.483,0.114,0.781,0.114c0.111,0,0.246-0.015,0.404-0.043
		c0.157-0.028,0.315-0.062,0.474-0.1s0.307-0.081,0.446-0.128s0.26-0.095,0.362-0.143s0.172-0.071,0.209-0.071V14.515z
		 M156.312,8.526c-0.251-0.855-0.711-1.53-1.38-2.025c-0.669-0.494-1.646-0.742-2.929-0.742c-0.817,0-1.631,0.181-2.439,0.542
		c-0.809,0.361-1.464,0.77-1.966,1.227l-0.809-1.512h-4.155V21.36h4.964V11.293c0.223-0.209,0.46-0.385,0.711-0.528
		s0.524-0.252,0.822-0.328c0.298-0.076,0.595-0.114,0.893-0.114c0.353,0,0.65,0.057,0.893,0.171
		c0.241,0.114,0.437,0.295,0.585,0.542c0.149,0.247,0.224,0.589,0.224,1.027v9.297h4.964v-9.982
		C156.689,10.333,156.563,9.381,156.312,8.526z M96.562,45.665h3.896v2.83c-0.463,0.169-1.016,0.33-1.656,0.48
		c-0.639,0.151-1.309,0.265-2.004,0.34s-1.369,0.113-2.018,0.113c-0.928,0-1.787-0.128-2.574-0.382
		c-0.79-0.255-1.472-0.67-2.047-1.245c-0.576-0.575-1.016-1.358-1.322-2.349c-0.306-0.991-0.459-2.231-0.459-3.722
		c0-1.547,0.144-2.834,0.432-3.862c0.288-1.028,0.705-1.84,1.252-2.434c0.547-0.595,1.234-1.019,2.061-1.273
		c0.824-0.255,1.758-0.382,2.797-0.382c0.984,0,1.879,0.062,2.688,0.184c0.807,0.123,1.691,0.335,2.658,0.637v2.887h-3.73
		c-0.836,0-1.484,0.113-1.949,0.339c-0.463,0.227-0.789,0.642-0.975,1.245c-0.186,0.604-0.277,1.472-0.277,2.604
		s0.092,1.981,0.277,2.547c0.186,0.566,0.512,0.948,0.975,1.146C95.05,45.567,95.709,45.665,96.562,45.665z M83.173,34.035
		l-2.451,4.224l-2.865-4.224h-4.983l4.988,7.353l-4.988,7.871h5.011l2.463-4.207l2.854,4.207h4.982l-4.972-7.329l4.972-7.894H83.173
		z M67.334,43.402h-3.062c0.056,0.547,0.171,0.99,0.348,1.33c0.176,0.339,0.501,0.58,0.974,0.722s1.173,0.212,2.102,0.212h4.176
		v2.943c-0.668,0.188-1.448,0.367-2.338,0.537s-1.958,0.255-3.201,0.255c-1.689,0-3.044-0.217-4.064-0.651
		c-1.021-0.434-1.758-1.217-2.213-2.349c-0.455-1.132-0.682-2.706-0.682-4.726c0-2.075,0.209-3.683,0.626-4.824
		s1.118-1.938,2.102-2.392c0.983-0.452,2.329-0.679,4.037-0.679c1.559,0,2.792,0.151,3.702,0.452
		c0.909,0.303,1.563,0.84,1.962,1.613c0.399,0.773,0.599,1.868,0.599,3.282c0,1.075-0.209,1.925-0.626,2.547
		c-0.417,0.623-1.007,1.066-1.768,1.33C69.245,43.27,68.354,43.402,67.334,43.402z M66.805,40.43c0.427,0,0.742-0.094,0.946-0.282
		s0.306-0.52,0.306-0.991c0-0.434-0.065-0.778-0.195-1.032c-0.13-0.255-0.339-0.443-0.626-0.566c-0.288-0.122-0.654-0.184-1.1-0.184
		s-0.812,0.09-1.1,0.269c-0.288,0.18-0.497,0.491-0.626,0.934c-0.13,0.443-0.195,1.062-0.195,1.854H66.805z M175.311,45.665h4.176
		v2.943c-0.668,0.188-1.447,0.367-2.339,0.537c-0.891,0.17-1.958,0.255-3.201,0.255c-1.688,0-3.043-0.217-4.063-0.651
		c-1.021-0.434-1.759-1.217-2.213-2.349c-0.455-1.132-0.683-2.706-0.683-4.726c0-2.075,0.209-3.683,0.627-4.824
		c0.417-1.142,1.117-1.938,2.102-2.392c0.983-0.452,2.328-0.679,4.036-0.679c1.559,0,2.793,0.151,3.702,0.452
		c0.909,0.303,1.563,0.84,1.963,1.613c0.398,0.773,0.598,1.868,0.598,3.282c0,1.075-0.208,1.925-0.626,2.547
		c-0.418,0.623-1.007,1.066-1.768,1.33c-0.761,0.265-1.652,0.396-2.672,0.396h-3.062c0.056,0.547,0.171,0.99,0.348,1.33
		c0.177,0.339,0.501,0.58,0.975,0.722S174.383,45.665,175.311,45.665z M171.832,40.43h2.589c0.427,0,0.742-0.094,0.946-0.282
		s0.307-0.52,0.307-0.991c0-0.434-0.065-0.778-0.195-1.032c-0.13-0.255-0.339-0.443-0.626-0.566c-0.288-0.122-0.654-0.184-1.1-0.184
		s-0.812,0.09-1.1,0.269c-0.288,0.18-0.497,0.491-0.626,0.934C171.896,39.02,171.832,39.638,171.832,40.43z M146.723,34.516
		c-0.668-0.49-1.643-0.735-2.923-0.735c-0.817,0-1.629,0.18-2.436,0.537c-0.808,0.359-1.462,0.765-1.963,1.217l-0.808-1.499h-4.147
		v15.224h4.955V39.27c0.223-0.207,0.459-0.382,0.71-0.523s0.524-0.25,0.821-0.325s0.594-0.113,0.891-0.113
		c0.353,0,0.649,0.057,0.891,0.17s0.436,0.293,0.585,0.537c0.148,0.246,0.223,0.585,0.223,1.02v9.225h4.955v-9.904
		c0-1.037-0.126-1.98-0.376-2.83C147.85,35.676,147.391,35.007,146.723,34.516z M114.573,34.459
		c-0.668-0.452-1.587-0.679-2.756-0.679c-0.835,0-1.67,0.184-2.506,0.552c-0.835,0.367-1.484,0.769-1.948,1.202v-7.838h-4.955
		v21.563h4.955V39.27c0.204-0.188,0.436-0.354,0.696-0.495c0.26-0.142,0.538-0.255,0.835-0.34s0.594-0.127,0.891-0.127
		c0.315,0,0.599,0.052,0.849,0.155c0.251,0.104,0.455,0.279,0.613,0.523c0.157,0.246,0.236,0.576,0.236,0.991v9.281h4.955v-9.961
		c0-1.112-0.145-2.084-0.432-2.914C115.718,35.554,115.241,34.912,114.573,34.459z M157.44,34.035h8.156v2.744l-1.837,0.481
		c0.148,0.188,0.278,0.41,0.39,0.665s0.199,0.562,0.265,0.92c0.064,0.358,0.098,0.782,0.098,1.273c0,0.924-0.187,1.735-0.558,2.434
		c-0.371,0.697-0.951,1.24-1.739,1.627c-0.789,0.387-1.842,0.58-3.159,0.58h-2.756c-0.372,0-0.683,0.062-0.933,0.184
		c-0.251,0.123-0.376,0.335-0.376,0.637c0,0.283,0.115,0.467,0.348,0.552s0.506,0.127,0.821,0.127h3.786
		c1.15,0,2.134,0.151,2.95,0.453s1.452,0.802,1.907,1.5c0.454,0.698,0.682,1.632,0.682,2.802v0.311c0,1.547-0.469,2.764-1.405,3.65
		c-0.938,0.887-2.399,1.33-4.385,1.33h-4.621c-0.928,0-1.763-0.142-2.505-0.424c-0.742-0.283-1.327-0.693-1.754-1.231
		c-0.427-0.537-0.64-1.184-0.64-1.938v-0.368c0-0.792,0.227-1.471,0.682-2.037c0.401-0.499,0.925-0.882,1.535-1.183
		c-0.077-0.052-0.171-0.091-0.241-0.147c-0.872-0.697-1.308-1.537-1.308-2.519c0-0.773,0.213-1.434,0.64-1.98
		s1.021-0.915,1.782-1.104c-0.539-0.34-0.975-0.736-1.309-1.188c-0.334-0.453-0.575-0.943-0.724-1.472
		c-0.149-0.528-0.223-1.085-0.223-1.67c0-1.112,0.223-2.037,0.668-2.772c0.445-0.736,1.142-1.292,2.088-1.67
		C154.712,34.224,155.937,34.035,157.44,34.035z M156.494,50.023c-0.353,0-0.649,0.052-0.891,0.156
		c-0.241,0.104-0.427,0.25-0.557,0.438s-0.195,0.425-0.195,0.707v0.198c0,0.377,0.135,0.688,0.404,0.934
		c0.269,0.245,0.682,0.368,1.238,0.368h2.589c0.501,0,0.909-0.104,1.225-0.312c0.315-0.207,0.474-0.509,0.474-0.905v-0.396
		c0-0.264-0.065-0.48-0.195-0.65s-0.315-0.302-0.557-0.396s-0.538-0.142-0.891-0.142H156.494z M158.554,37.77h-1.56
		c-0.538,0-0.928,0.118-1.169,0.354c-0.241,0.235-0.362,0.655-0.362,1.259c0,0.566,0.116,0.981,0.349,1.245
		c0.231,0.265,0.616,0.396,1.155,0.396h1.531c0.407,0,0.728-0.062,0.96-0.185c0.231-0.122,0.39-0.306,0.474-0.552
		c0.083-0.244,0.125-0.547,0.125-0.905c0-0.377-0.052-0.688-0.153-0.934c-0.103-0.245-0.265-0.42-0.487-0.523
		S158.906,37.77,158.554,37.77z M131.065,35.874c0.491,0.755,0.737,1.82,0.737,3.197v10.188h-3.925l-0.779-1.557
		c-0.167,0.17-0.39,0.35-0.668,0.538s-0.622,0.377-1.03,0.565c-0.408,0.189-0.862,0.34-1.363,0.453s-1.059,0.17-1.671,0.17
		c-1.132,0-2.056-0.344-2.77-1.033c-0.715-0.688-1.071-1.636-1.071-2.844V44.08c0-1.15,0.403-2.099,1.211-2.844
		c0.807-0.745,2.083-1.117,3.827-1.117h3.285v-0.68c0-0.415-0.07-0.745-0.209-0.99c-0.14-0.245-0.418-0.425-0.835-0.538
		c-0.418-0.113-1.062-0.17-1.935-0.17h-4.427v-2.886c0.761-0.283,1.638-0.523,2.631-0.722c0.992-0.198,2.203-0.297,3.633-0.297
		c1.262,0,2.348,0.151,3.257,0.452C129.873,34.592,130.573,35.12,131.065,35.874z M126.848,42.468l-1.615,0.169
		c-0.594,0.076-1.034,0.231-1.322,0.468c-0.288,0.235-0.431,0.58-0.431,1.032v0.595c0,0.302,0.06,0.547,0.181,0.735
		c0.12,0.188,0.292,0.321,0.515,0.396s0.482,0.113,0.779,0.113c0.111,0,0.246-0.015,0.404-0.043
		c0.157-0.028,0.314-0.061,0.473-0.099c0.157-0.038,0.307-0.08,0.445-0.128c0.14-0.047,0.26-0.094,0.362-0.141
		c0.102-0.047,0.171-0.071,0.209-0.071V42.468z M66.88,62.089h3.308v4.003H66.88v5.592c0,0.303,0.023,0.559,0.072,0.767
		c0.047,0.208,0.129,0.383,0.245,0.524c0.115,0.143,0.249,0.246,0.402,0.312s0.316,0.109,0.489,0.128l1.985,0.198v3.747h-3.078
		c-1.285,0-2.311-0.175-3.078-0.525c-0.767-0.35-1.318-0.937-1.654-1.76c-0.336-0.823-0.484-1.944-0.446-3.363l0.144-5.62h-2.388
		v-3.208l2.589-0.795l0.662-4.285h4.056V62.089z M85.981,65.907c0.269,1.013,0.402,2.267,0.402,3.761
		c0,1.495-0.125,2.744-0.374,3.747s-0.657,1.808-1.223,2.412c-0.565,0.606-1.313,1.036-2.243,1.292
		c-0.931,0.256-2.086,0.383-3.467,0.383c-1.342,0-2.479-0.137-3.409-0.411s-1.683-0.719-2.258-1.334
		c-0.575-0.615-0.988-1.424-1.237-2.427c-0.25-1.003-0.374-2.224-0.374-3.662c0-1.532,0.129-2.805,0.388-3.817
		c0.259-1.013,0.676-1.812,1.251-2.398c0.575-0.587,1.328-1.003,2.258-1.249c0.93-0.246,2.057-0.369,3.38-0.369
		c1.343,0,2.483,0.128,3.424,0.383c0.939,0.256,1.687,0.682,2.243,1.277C85.3,64.091,85.712,64.895,85.981,65.907z M81.263,69.668
		c0-0.87-0.039-1.562-0.115-2.072c-0.077-0.511-0.201-0.889-0.374-1.135s-0.394-0.407-0.661-0.483
		c-0.27-0.075-0.614-0.113-1.036-0.113c-0.402,0-0.743,0.038-1.021,0.113c-0.277,0.076-0.499,0.237-0.661,0.483
		c-0.163,0.246-0.283,0.624-0.36,1.135s-0.115,1.202-0.115,2.072c0,0.852,0.038,1.538,0.115,2.058
		c0.077,0.521,0.197,0.908,0.36,1.164c0.163,0.256,0.384,0.417,0.661,0.482c0.278,0.066,0.619,0.1,1.021,0.1
		c0.422,0,0.767-0.033,1.036-0.1c0.268-0.065,0.488-0.227,0.661-0.482s0.297-0.643,0.374-1.164
		C81.224,71.206,81.263,70.52,81.263,69.668z M103.5,62.089h-5.178l-2.819,4.968h-1.669V55.703h-5.12V77.36h5.12v-5.762h1.611
		l3.395,5.762h5.149l-4.689-8.033L103.5,62.089z M113.079,71.485h-3.164c0.058,0.55,0.177,0.994,0.359,1.334
		c0.183,0.341,0.518,0.582,1.007,0.725c0.489,0.142,1.213,0.213,2.172,0.213h4.315v2.951c-0.69,0.189-1.496,0.369-2.417,0.54
		c-0.92,0.17-2.023,0.255-3.308,0.255c-1.745,0-3.146-0.217-4.2-0.652s-1.817-1.221-2.287-2.356c-0.47-1.135-0.704-2.715-0.704-4.74
		c0-2.081,0.215-3.694,0.646-4.84c0.432-1.145,1.155-1.944,2.172-2.398s2.407-0.681,4.172-0.681c1.61,0,2.886,0.151,3.825,0.454
		s1.616,0.842,2.028,1.618c0.412,0.775,0.618,1.873,0.618,3.292c0,1.079-0.215,1.931-0.646,2.555
		c-0.432,0.625-1.041,1.069-1.827,1.334C115.054,71.353,114.133,71.485,113.079,71.485z M112.533,68.504
		c0.44,0,0.767-0.094,0.978-0.283s0.316-0.521,0.316-0.994c0-0.435-0.067-0.78-0.201-1.036c-0.135-0.255-0.351-0.444-0.647-0.567
		c-0.298-0.123-0.676-0.185-1.136-0.185c-0.461,0-0.84,0.09-1.137,0.27c-0.298,0.181-0.514,0.492-0.647,0.938
		c-0.134,0.444-0.201,1.064-0.201,1.858H112.533z M134.784,64.587c-0.26-0.852-0.734-1.522-1.425-2.015
		c-0.689-0.492-1.696-0.738-3.02-0.738c-0.845,0-1.684,0.18-2.518,0.539s-1.51,0.767-2.028,1.221l-0.834-1.505h-4.286V77.36h5.12
		v-10.02c0.23-0.208,0.475-0.384,0.733-0.525c0.26-0.142,0.542-0.251,0.849-0.326c0.307-0.076,0.614-0.114,0.921-0.114
		c0.364,0,0.671,0.058,0.921,0.171c0.249,0.113,0.45,0.293,0.604,0.539s0.23,0.587,0.23,1.021v9.254h5.12v-9.935
		C135.171,66.385,135.043,65.439,134.784,64.587z"/>
</g>
</svg>
